<?xml version="1.0" encoding="UTF-8" standalone="no"?>
<!DOCTYPE svg PUBLIC "-//W3C//DTD SVG 1.1//EN" "http://www.w3.org/Graphics/SVG/1.1/DTD/svg11.dtd">
<svg width="100%" height="100%" viewBox="0 0 710 356" version="1.1" xmlns="http://www.w3.org/2000/svg" xmlns:xlink="http://www.w3.org/1999/xlink" xml:space="preserve" xmlns:serif="http://www.serif.com/" style="fill-rule:evenodd;clip-rule:evenodd;stroke-linecap:round;stroke-linejoin:round;stroke-miterlimit:1.5;">
    <g id="VA---Music" serif:id="VA / Music" transform="matrix(1,0,0,1,-117.61,-180.5)">
        <g transform="matrix(1,0,0,1.07516,0,-13.6042)">
            <path d="M826.772,202.971C826.772,190.845 816.187,181 803.15,181L141.732,181C128.695,181 118.11,190.845 118.11,202.971L118.11,489.029C118.11,501.155 128.695,511 141.732,511L803.15,511C816.187,511 826.772,501.155 826.772,489.029L826.772,202.971Z" style="fill:white;stroke:rgb(145,145,145);stroke-width:0.96px;"/>
        </g>
        <g transform="matrix(0.972101,0,0,0.481213,-3.40235,105.45)">
            <path d="M854,206.089C854,178.996 843.112,157 829.7,157L149.3,157C135.888,157 125,178.996 125,206.089L125,721.911C125,749.004 135.888,771 149.3,771L829.7,771C843.112,771 854,749.004 854,721.911L854,206.089Z" style="fill:rgb(255,238,179);"/>
        </g>
        <g transform="matrix(1,0,0,1,-67.2358,51.5886)">
            <g transform="matrix(83.3333,0,0,83.3333,357.51,305.852)">
                <path d="M0.225,-0L0.309,-0L0.48,-0.526L0.651,-0L0.735,-0L0.939,-0.697L0.85,-0.697L0.688,-0.126L0.516,-0.659L0.443,-0.659L0.271,-0.126L0.109,-0.697L0.021,-0.697L0.225,-0Z" style="fill-rule:nonzero;"/>
            </g>
            <g transform="matrix(83.3333,0,0,83.3333,433.343,305.852)">
                <path d="M0.488,-0.267C0.488,-0.384 0.422,-0.501 0.271,-0.501C0.123,-0.501 0.048,-0.381 0.048,-0.244C0.048,-0.106 0.124,0.008 0.279,0.008C0.355,0.008 0.415,-0.015 0.472,-0.076L0.416,-0.125C0.373,-0.079 0.33,-0.066 0.28,-0.066C0.188,-0.066 0.132,-0.125 0.129,-0.223L0.485,-0.223C0.487,-0.239 0.488,-0.255 0.488,-0.267ZM0.27,-0.433C0.353,-0.433 0.405,-0.38 0.409,-0.302C0.409,-0.294 0.41,-0.291 0.41,-0.289L0.13,-0.289C0.135,-0.369 0.186,-0.433 0.27,-0.433Z" style="fill-rule:nonzero;"/>
            </g>
            <g transform="matrix(83.3333,0,0,83.3333,477.927,305.852)">
                <path d="M0.167,0.008C0.187,0.008 0.215,0.003 0.238,-0.005L0.237,-0.073C0.222,-0.068 0.204,-0.065 0.192,-0.065C0.159,-0.065 0.149,-0.087 0.149,-0.116L0.149,-0.697L0.068,-0.697L0.068,-0.11C0.068,-0.03 0.108,0.008 0.167,0.008Z" style="fill-rule:nonzero;"/>
            </g>
            <g transform="matrix(83.3333,0,0,83.3333,499.177,305.852)">
                <path d="M0.275,0.008C0.365,0.008 0.439,-0.04 0.472,-0.131L0.397,-0.159C0.38,-0.099 0.332,-0.063 0.275,-0.063C0.174,-0.063 0.131,-0.15 0.131,-0.245C0.131,-0.34 0.174,-0.43 0.274,-0.43C0.332,-0.43 0.379,-0.393 0.4,-0.333L0.477,-0.363C0.438,-0.457 0.364,-0.501 0.274,-0.501C0.122,-0.501 0.048,-0.374 0.048,-0.245C0.048,-0.11 0.128,0.008 0.275,0.008Z" style="fill-rule:nonzero;"/>
            </g>
            <g transform="matrix(83.3333,0,0,83.3333,542.093,305.852)">
                <path d="M0.286,0.008C0.429,0.008 0.525,-0.104 0.525,-0.247C0.525,-0.391 0.429,-0.501 0.286,-0.501C0.142,-0.501 0.047,-0.391 0.047,-0.247C0.047,-0.103 0.142,0.008 0.286,0.008ZM0.286,-0.063C0.184,-0.063 0.128,-0.143 0.128,-0.247C0.128,-0.351 0.184,-0.43 0.286,-0.43C0.387,-0.43 0.444,-0.351 0.444,-0.247C0.444,-0.145 0.388,-0.063 0.286,-0.063Z" style="fill-rule:nonzero;"/>
            </g>
            <g transform="matrix(83.3333,0,0,83.3333,589.76,305.852)">
                <path d="M0.59,-0.501C0.518,-0.501 0.462,-0.472 0.428,-0.405C0.402,-0.473 0.348,-0.501 0.284,-0.501C0.231,-0.501 0.18,-0.483 0.149,-0.433L0.149,-0.493L0.07,-0.493L0.071,-0L0.152,-0L0.152,-0.225C0.152,-0.305 0.16,-0.43 0.269,-0.43C0.353,-0.43 0.374,-0.355 0.374,-0.283L0.374,-0L0.455,-0L0.455,-0.225C0.455,-0.323 0.47,-0.43 0.575,-0.43C0.677,-0.43 0.677,-0.324 0.677,-0.286L0.677,-0L0.758,-0L0.758,-0.31C0.758,-0.42 0.708,-0.501 0.59,-0.501Z" style="fill-rule:nonzero;"/>
            </g>
            <g transform="matrix(83.3333,0,0,83.3333,658.26,305.852)">
                <path d="M0.488,-0.267C0.488,-0.384 0.422,-0.501 0.271,-0.501C0.123,-0.501 0.048,-0.381 0.048,-0.244C0.048,-0.106 0.124,0.008 0.279,0.008C0.355,0.008 0.415,-0.015 0.472,-0.076L0.416,-0.125C0.373,-0.079 0.33,-0.066 0.28,-0.066C0.188,-0.066 0.132,-0.125 0.129,-0.223L0.485,-0.223C0.487,-0.239 0.488,-0.255 0.488,-0.267ZM0.27,-0.433C0.353,-0.433 0.405,-0.38 0.409,-0.302C0.409,-0.294 0.41,-0.291 0.41,-0.289L0.13,-0.289C0.135,-0.369 0.186,-0.433 0.27,-0.433Z" style="fill-rule:nonzero;"/>
            </g>
            <g transform="matrix(83.3333,0,0,83.3333,702.843,305.852)">
                <path d="M0.127,-0.2L0.189,-0.2L0.198,-0.697L0.118,-0.697L0.127,-0.2ZM0.108,-0L0.207,-0L0.207,-0.115L0.108,-0.115L0.108,-0Z" style="fill-rule:nonzero;"/>
            </g>
        </g>
        <g transform="matrix(1,0,0,1,-8.45397,23.8413)">
            <g transform="matrix(33.3333,0,0,33.3333,148.576,491.383)">
                <path d="M0.077,-0L0.161,-0L0.161,-0.545L0.077,-0.545L0.077,-0ZM0.119,-0.636C0.152,-0.636 0.179,-0.662 0.179,-0.693C0.179,-0.724 0.152,-0.75 0.119,-0.75C0.087,-0.75 0.06,-0.724 0.06,-0.693C0.06,-0.662 0.087,-0.636 0.119,-0.636Z" style="fill-rule:nonzero;"/>
            </g>
            <g transform="matrix(33.3333,0,0,33.3333,156.483,491.383)">
                <path d="M0.314,-0.545L0.197,-0.545L0.197,-0.676L0.114,-0.676L0.114,-0.545L0.031,-0.545L0.031,-0.474L0.114,-0.474L0.114,-0.134C0.114,-0.038 0.19,0.007 0.261,0.007C0.293,0.007 0.313,0.001 0.324,-0.003L0.307,-0.078C0.3,-0.077 0.288,-0.074 0.27,-0.074C0.233,-0.074 0.197,-0.085 0.197,-0.156L0.197,-0.474L0.314,-0.474L0.314,-0.545Z" style="fill-rule:nonzero;"/>
            </g>
            <g transform="matrix(33.3333,0,0,33.3333,168.415,491.383)">
                <path d="M0.305,0.011C0.416,0.011 0.497,-0.044 0.523,-0.126L0.442,-0.149C0.42,-0.092 0.371,-0.064 0.305,-0.064C0.207,-0.064 0.139,-0.127 0.135,-0.244L0.531,-0.244L0.531,-0.28C0.531,-0.483 0.411,-0.553 0.297,-0.553C0.149,-0.553 0.051,-0.436 0.051,-0.268C0.051,-0.101 0.148,0.011 0.305,0.011ZM0.135,-0.317C0.141,-0.402 0.201,-0.477 0.297,-0.477C0.388,-0.477 0.446,-0.409 0.446,-0.317L0.135,-0.317Z" style="fill-rule:nonzero;"/>
            </g>
            <g transform="matrix(33.3333,0,0,33.3333,187.827,491.383)">
                <path d="M0.077,-0L0.161,-0L0.161,-0.341C0.161,-0.421 0.219,-0.477 0.284,-0.477C0.348,-0.477 0.392,-0.436 0.392,-0.374L0.392,-0L0.477,-0L0.477,-0.355C0.477,-0.425 0.521,-0.477 0.598,-0.477C0.658,-0.477 0.709,-0.446 0.709,-0.365L0.709,-0L0.793,-0L0.793,-0.365C0.793,-0.493 0.724,-0.553 0.626,-0.553C0.548,-0.553 0.491,-0.517 0.463,-0.46L0.457,-0.46C0.43,-0.518 0.383,-0.553 0.311,-0.553C0.24,-0.553 0.188,-0.518 0.165,-0.46L0.158,-0.46L0.158,-0.545L0.077,-0.545L0.077,-0Z" style="fill-rule:nonzero;"/>
            </g>
            <g transform="matrix(33.3333,0,0,33.3333,216.805,491.383)">
                <path d="M0.463,-0.423C0.437,-0.501 0.378,-0.553 0.27,-0.553C0.155,-0.553 0.07,-0.487 0.07,-0.395C0.07,-0.32 0.114,-0.269 0.214,-0.246L0.305,-0.224C0.36,-0.212 0.386,-0.185 0.386,-0.148C0.386,-0.101 0.337,-0.063 0.259,-0.063C0.19,-0.063 0.147,-0.092 0.132,-0.151L0.053,-0.131C0.072,-0.038 0.148,0.011 0.26,0.011C0.387,0.011 0.473,-0.058 0.473,-0.152C0.473,-0.228 0.425,-0.276 0.328,-0.3L0.247,-0.32C0.183,-0.336 0.153,-0.357 0.153,-0.399C0.153,-0.446 0.203,-0.48 0.27,-0.48C0.343,-0.48 0.373,-0.44 0.388,-0.402L0.463,-0.423Z" style="fill-rule:nonzero;"/>
            </g>
            <g transform="matrix(33.3333,0,0,33.3333,234.229,491.383)">
                <path d="M0.138,0.006C0.173,0.006 0.202,-0.023 0.202,-0.058C0.202,-0.093 0.173,-0.122 0.138,-0.122C0.103,-0.122 0.074,-0.093 0.074,-0.058C0.074,-0.023 0.103,0.006 0.138,0.006Z" style="fill-rule:nonzero;"/>
            </g>
            <g transform="matrix(33.3333,0,0,33.3333,243.415,491.383)">
                <path d="M0.077,-0L0.161,-0L0.161,-0.345C0.161,-0.419 0.219,-0.473 0.298,-0.473C0.321,-0.473 0.344,-0.469 0.349,-0.467L0.349,-0.553C0.34,-0.553 0.318,-0.554 0.305,-0.554C0.24,-0.554 0.183,-0.517 0.163,-0.463L0.158,-0.463L0.158,-0.545L0.077,-0.545L0.077,-0Z" style="fill-rule:nonzero;"/>
            </g>
            <g transform="matrix(33.3333,0,0,33.3333,255.82,491.383)">
                <path d="M0.077,-0L0.161,-0L0.161,-0.545L0.077,-0.545L0.077,-0ZM0.119,-0.636C0.152,-0.636 0.179,-0.662 0.179,-0.693C0.179,-0.724 0.152,-0.75 0.119,-0.75C0.087,-0.75 0.06,-0.724 0.06,-0.693C0.06,-0.662 0.087,-0.636 0.119,-0.636Z" style="fill-rule:nonzero;"/>
            </g>
            <g transform="matrix(33.3333,0,0,33.3333,263.727,491.383)">
                <path d="M0.298,0.011C0.419,0.011 0.499,-0.063 0.513,-0.159L0.429,-0.159C0.413,-0.099 0.364,-0.064 0.298,-0.064C0.199,-0.064 0.135,-0.146 0.135,-0.273C0.135,-0.396 0.2,-0.477 0.298,-0.477C0.372,-0.477 0.416,-0.432 0.429,-0.382L0.513,-0.382C0.499,-0.484 0.412,-0.553 0.297,-0.553C0.149,-0.553 0.051,-0.436 0.051,-0.27C0.051,-0.107 0.145,0.011 0.298,0.011Z" style="fill-rule:nonzero;"/>
            </g>
            <g transform="matrix(33.3333,0,0,33.3333,282.335,491.383)">
                <path d="M0.298,0.011C0.446,0.011 0.545,-0.101 0.545,-0.27C0.545,-0.44 0.446,-0.553 0.298,-0.553C0.151,-0.553 0.051,-0.44 0.051,-0.27C0.051,-0.101 0.151,0.011 0.298,0.011ZM0.298,-0.064C0.186,-0.064 0.135,-0.161 0.135,-0.27C0.135,-0.379 0.186,-0.477 0.298,-0.477C0.411,-0.477 0.462,-0.379 0.462,-0.27C0.462,-0.161 0.411,-0.064 0.298,-0.064Z" style="fill-rule:nonzero;"/>
            </g>
            <g transform="matrix(33.3333,0,0,33.3333,302.221,491.383)">
                <path d="M0.077,-0L0.161,-0L0.161,-0.545L0.077,-0.545L0.077,-0ZM0.119,-0.636C0.152,-0.636 0.179,-0.662 0.179,-0.693C0.179,-0.724 0.152,-0.75 0.119,-0.75C0.087,-0.75 0.06,-0.724 0.06,-0.693C0.06,-0.662 0.087,-0.636 0.119,-0.636Z" style="fill-rule:nonzero;"/>
            </g>
            <g transform="matrix(33.3333,0,0,33.3333,310.129,491.383)">
                <path d="M0.077,0.205L0.161,0.205L0.161,-0.084L0.168,-0.084C0.186,-0.054 0.222,0.011 0.327,0.011C0.463,0.011 0.558,-0.098 0.558,-0.271C0.558,-0.443 0.463,-0.553 0.325,-0.553C0.219,-0.553 0.186,-0.487 0.168,-0.459L0.158,-0.459L0.158,-0.545L0.077,-0.545L0.077,0.205ZM0.159,-0.273C0.159,-0.395 0.213,-0.477 0.315,-0.477C0.422,-0.477 0.474,-0.388 0.474,-0.273C0.474,-0.156 0.42,-0.064 0.315,-0.064C0.214,-0.064 0.159,-0.149 0.159,-0.273Z" style="fill-rule:nonzero;"/>
            </g>
            <g transform="matrix(33.3333,0,0,33.3333,330.441,491.383)">
                <path d="M0.138,0.006C0.173,0.006 0.202,-0.023 0.202,-0.058C0.202,-0.093 0.173,-0.122 0.138,-0.122C0.103,-0.122 0.074,-0.093 0.074,-0.058C0.074,-0.023 0.103,0.006 0.138,0.006Z" style="fill-rule:nonzero;"/>
            </g>
            <g transform="matrix(33.3333,0,0,33.3333,339.627,491.383)">
                <path d="M0.298,0.011C0.419,0.011 0.499,-0.063 0.513,-0.159L0.429,-0.159C0.413,-0.099 0.364,-0.064 0.298,-0.064C0.199,-0.064 0.135,-0.146 0.135,-0.273C0.135,-0.396 0.2,-0.477 0.298,-0.477C0.372,-0.477 0.416,-0.432 0.429,-0.382L0.513,-0.382C0.499,-0.484 0.412,-0.553 0.297,-0.553C0.149,-0.553 0.051,-0.436 0.051,-0.27C0.051,-0.107 0.145,0.011 0.298,0.011Z" style="fill-rule:nonzero;"/>
            </g>
            <g transform="matrix(33.3333,0,0,33.3333,358.235,491.383)">
                <path d="M0.298,0.011C0.446,0.011 0.545,-0.101 0.545,-0.27C0.545,-0.44 0.446,-0.553 0.298,-0.553C0.151,-0.553 0.051,-0.44 0.051,-0.27C0.051,-0.101 0.151,0.011 0.298,0.011ZM0.298,-0.064C0.186,-0.064 0.135,-0.161 0.135,-0.27C0.135,-0.379 0.186,-0.477 0.298,-0.477C0.411,-0.477 0.462,-0.379 0.462,-0.27C0.462,-0.161 0.411,-0.064 0.298,-0.064Z" style="fill-rule:nonzero;"/>
            </g>
            <g transform="matrix(33.3333,0,0,33.3333,378.121,491.383)">
                <path d="M0.077,-0L0.161,-0L0.161,-0.341C0.161,-0.421 0.219,-0.477 0.284,-0.477C0.348,-0.477 0.392,-0.436 0.392,-0.374L0.392,-0L0.477,-0L0.477,-0.355C0.477,-0.425 0.521,-0.477 0.598,-0.477C0.658,-0.477 0.709,-0.446 0.709,-0.365L0.709,-0L0.793,-0L0.793,-0.365C0.793,-0.493 0.724,-0.553 0.626,-0.553C0.548,-0.553 0.491,-0.517 0.463,-0.46L0.457,-0.46C0.43,-0.518 0.383,-0.553 0.311,-0.553C0.24,-0.553 0.188,-0.518 0.165,-0.46L0.158,-0.46L0.158,-0.545L0.077,-0.545L0.077,-0Z" style="fill-rule:nonzero;"/>
            </g>
        </g>
    </g>
</svg>
